<svg width="1539" height="1299" xmlns="http://www.w3.org/2000/svg" xmlns:xlink="http://www.w3.org/1999/xlink" xml:space="preserve" overflow="hidden"><defs><clipPath id="clip0"><rect x="1468" y="479" width="1539" height="1299"/></clipPath></defs><g clip-path="url(#clip0)" transform="translate(-1468 -479)"><rect x="1555" y="479" width="1300" height="1299" fill="#CAEEFB"/><text fill="#3076CD" font-family="Copperplate Gothic Bold,Copperplate Gothic Bold_MSFontService,sans-serif" font-weight="700" font-size="330" transform="matrix(1 0 0 1 1882.08 969)">QTI</text><text fill="#3076CD" font-family="Copperplate Gothic Bold,Copperplate Gothic Bold_MSFontService,sans-serif" font-weight="700" font-size="330" transform="matrix(1 0 0 1 2495.68 969)"> </text><text fill="#46B1E1" font-family="Cooper Black,Cooper Black_MSFontService,sans-serif" font-weight="700" font-size="367" transform="matrix(1 0 0 1 1688.97 1180)">Mock</text><text fill="#46B1E1" font-family="Cooper Black,Cooper Black_MSFontService,sans-serif" font-weight="700" font-size="367" transform="matrix(1 0 0 1 2694.39 1180)"> </text><g><g><g><path d="M2419.92 1274C2429.72 1274 2437.67 1266.05 2437.67 1256.25L2437.67 1197.08C2437.67 1187.28 2429.72 1179.33 2419.92 1179.33L2378.5 1179.33 2378.5 1149.75C2378.5 1136.68 2367.9 1126.08 2354.83 1126.08 2341.76 1126.08 2331.17 1136.68 2331.17 1149.75L2331.17 1179.33 2070.83 1179.33 2070.83 1149.75C2070.83 1136.68 2060.24 1126.08 2047.17 1126.08 2034.1 1126.08 2023.5 1136.68 2023.5 1149.75L2023.5 1179.33 1982.08 1179.33C1972.28 1179.33 1964.33 1187.28 1964.33 1197.08L1964.33 1256.25C1964.33 1266.05 1972.28 1274 1982.08 1274L2023.5 1274 2023.5 1333.17 1982.08 1333.17C1972.28 1333.17 1964.33 1341.11 1964.33 1350.92L1964.33 1410.08C1964.33 1419.89 1972.28 1427.83 1982.08 1427.83L2023.5 1427.83 2023.5 1529.25C2013.07 1531.92 2005.77 1541.32 2005.75 1552.08L2005.75 1563.92 2088.58 1563.92 2088.58 1552.08C2088.56 1541.32 2081.26 1531.92 2070.83 1529.25L2070.83 1427.83 2331.17 1427.83 2331.17 1529.25C2320.74 1531.92 2313.44 1541.32 2313.42 1552.08L2313.42 1563.92 2396.25 1563.92 2396.25 1552.08C2396.23 1541.32 2388.93 1531.92 2378.5 1529.25L2378.5 1427.83 2419.92 1427.83C2429.72 1427.83 2437.67 1419.89 2437.67 1410.08L2437.67 1350.92C2437.67 1341.11 2429.72 1333.17 2419.92 1333.17L2378.5 1333.17 2378.5 1274ZM2377.7 1250.33 2330.36 1203 2380.56 1203 2414 1236.44 2414 1250.33ZM2259.95 1250.33 2212.62 1203 2262.82 1203 2310.15 1250.33ZM2139.51 1250.33 2092.18 1203 2142.38 1203 2189.72 1250.33ZM2024.93 1203 2072.27 1250.33 2022.07 1250.33 1988 1216.27 1988 1203ZM2262.78 1356.83 2310.12 1404.17 2259.93 1404.17 2212.6 1356.83ZM2142.38 1356.83 2189.72 1404.17 2139.51 1404.17 2092.18 1356.83ZM2024.93 1356.83 2072.27 1404.17 2022.07 1404.17 1988 1370.1 1988 1356.83ZM2377.7 1404.17 2330.36 1356.83 2380.56 1356.83 2414 1390.27 2414 1404.17ZM2331.17 1333.17 2070.83 1333.17 2070.83 1274 2331.17 1274Z"/></g></g></g></g></svg>