<svg xmlns="http://www.w3.org/2000/svg" viewBox="0 0 400 300">
  <!-- 背景（海） -->
  <rect width="400" height="300" fill="#b3d9ff"/>

  <!-- 日本地図 (based on Japan_prefectures.svg from Wikimedia Commons) -->
  <!-- 元のSVGは2090x2600、viewBox 0 0 400 300 に合わせてスケール -->
  <g fill="#90c695" stroke="#5a8f5e" stroke-width="0.4" transform="scale(0.191, 0.115)">
    <!-- 北海道 -->
    <path id="Hokkaido" d="m1455.25,70.5 c0.7215,-15.65433 20.5239,-13.82693 29,-4.25 l43,48.5 c5.0031,5.643 11.0252,9.82219 16.25,16 7.1317,8.43254 13.0861,14.85281 19,19 9.427,6.61083 18.5537,15.96177 27.5,25.5 6.9834,7.44551 12.8615,15.87764 20.75,19 3.8188,1.51153 7.5188,3.85787 11.25,7.5 2.3704,2.31376 4.6087,4.70567 8.75,7.25 4.0029,2.45934 3.6958,2.89031 8.25,6.75 7.2864,6.17521 18.7187,14.81157 27,15.25 9.608,0.50867 19.1193,8.54065 27.25,14.5 12.5284,9.18263 26.842,13.31155 40.25,14.5 16.3172,1.44632 42.8746,3.99049 51.5,5.25 15.8859,2.31971 34.0066,2.46789 38.25,-2.25 6.3152,-7.02135 13.9675,-8.03688 17.75,-12.5 5.4356,-6.4138 9.7362,-9.82586 10.75,-15.25 1.913,-10.23587 7.2289,-18.12327 17,-27 19.3989,-17.62322 17.2338,-20.21312 16.25,2.75 -0.3457,8.06879 -1.9335,16.04472 -6.75,21.5 -4.879,5.52604 -6.9327,10.54286 -9.25,13 -5.7785,6.12734 -5.6079,24.86575 -4.25,34.75 0.8906,6.48273 3.9344,14.86065 4.25,18.25 0.3943,4.23455 2.1039,8.74549 5.25,12.25 3.4372,3.82882 5.198,6.5934 6.75,9.75 1.4389,2.92673 2.7778,6.10052 5.5,9 4.5071,4.80073 6.1388,10.47387 9.25,15.25 9.0249,13.85444 18.8597,18.7539 32.25,13.25 48.6312,-19.98914 13.6336,-1.80812 8.5,7.25 -6.8078,12.01213 -12.6457,22.10479 -27.5,27 -10.335,3.4059 -20.714,8.96014 -28.25,18 -8.2644,9.91367 -15.3417,16.10182 -23.75,5.75 -14.0107,-17.24918 -21.7175,1.73284 -14.25,10.75 10.2323,12.35578 7.5066,10.52551 -3,11 -6.5236,0.29461 -14.1757,0.75917 -21.5,-2 -13.4491,-5.06647 -26.0443,-11.36397 -39.25,0.25 -3.4152,3.00353 -3.4413,5.3969 -10.75,11.25 -13.4616,10.7806 -22.6872,21.6 -32,33 -3.6106,4.4198 -5.6046,10.0356 -9.5,12.5 -6.3758,4.0335 -8.6424,8.8654 -10.5,14.25 -2.5371,7.3545 -7.5465,11.0875 -10,15.25 -7.788,13.2127 -8.1011,27.8441 -8.75,46.5 l-1,28.75 c-0.7379,21.2157 0.0797,20.9648 -16.5,11.25 -8.2309,-4.8229 -16.529,-7.1436 -31,-10 -12.0459,-2.3777 -24.3844,-3.4232 -35.75,-8.5 -2.7902,-1.2463 -5.4255,-4.5054 -10,-5.5 -4.7042,-1.0229 -7.9443,-3.7855 -12.5,-7.75 -2.5264,-2.1986 -5.0395,-4.9617 -8.75,-6.5 -6.3413,-2.6289 -7.2726,-4.5099 -10,-7 -5.4677,-4.9919 -10.4766,-10.9448 -18.75,-15.25 -7.2626,-3.7792 -12.061,-6.9602 -17.25,-11.25 -4.6802,-3.8691 -10.003,-5.5693 -18.75,-5.75 -12.9638,-0.2679 -25.1677,-1.2519 -37,2.25 -3.3524,0.9922 -9.6257,1.9177 -15.25,3.25 -13.0068,3.081 -12.9891,5.8623 -16.75,10.25 l-27,31.5 c-10.1989,11.8987 -8.9343,9.5924 -13,-0.75 -3.4061,-8.6643 -5.444,-13.7732 -9.75,-19.5 -4.4458,-5.9127 -9.4244,-11.2619 -22.25,-11 -4.0637,0.083 -8.8757,1.1691 -14.75,2 -3.4842,0.4929 -6.5402,0.619 -11.25,4.5 -2.7788,2.2899 -4.0105,3.0448 -6.75,5.25 -9.8441,7.9243 -7.8526,17.1844 -7.5,26 l0.5,12.5 c5.0725,12.6848 17.8865,17.6024 28,19.75 6.486,1.3773 20.0605,1.5243 28.5,0.5 7.0724,-0.8583 10.6847,1.6105 10.25,9 l-0.5,8.5 c-0.2685,4.5651 3.6544,5.2232 6.75,6.5 11.3678,4.6887 21.3292,9.0545 29.75,10.75 12.7695,2.5711 11.2428,7.468 6,13.75 -4.4318,5.3103 -8.5613,8.6052 -11.75,12.75 -5.2759,6.8576 -10.8864,7.2963 -17.25,5.25 -3.4814,-1.1195 -7.0714,-1.5568 -12.5,-2.25 -4.9596,-0.6334 -8.7866,-3.3995 -12.25,-8 -5.6247,-7.4714 -9.3691,-4.6959 -12,-1.75 -5.8661,6.5685 -12.1366,13.2277 -16.25,20.5 -2.6476,4.6809 -4.9309,7.675 -3.25,19 1.1268,7.5914 -0.4141,13.443 -1.75,19 -0.9314,3.8745 -4.1398,6.4343 -6.25,9.25 -4.4889,5.9898 -9.1599,5.99 -14.75,2 -2.8012,-1.9994 -6.6142,-1.6568 -10.75,-3 -8.752,-2.8424 -12.4527,-9.9881 -16.25,-16 -3.866,-6.1206 -5.0987,-25.0993 3.25,-31.5 l7.5,-5.75 c4.9318,-3.5034 5.7214,-6.1945 6,-12.5 l-2,-15.75 c-0.6693,-5.2704 -3.2182,-8.5571 -11.25,-15.5 -2.6533,-2.2936 -4.0508,-6.3985 -7.5,-8.5 -5.0982,-3.1062 -10.362,-6.0771 -14.75,-10.5 -2.4438,-2.4631 -5.663,-5.1063 -10,-7 -8.3702,-3.6547 -7.9534,-7.7517 -8.5,-15 v-26.75 c0,-5.0154 -0.2815,-10.2504 3.25,-14.5 2.2111,-2.6607 2.0219,-7.0966 5.25,-11.25 5.1098,-6.5745 7.2341,-9.9485 10.25,-11.5 4.5375,-2.3343 7.6997,-3.2728 10.25,-5.5 3.8339,-3.3482 6.4164,-4.4462 8.25,-5.25 5.293,-2.3204 8.6481,-5.428 11,-7.5 7.3779,-6.4999 13.7414,-12.9025 19,-19.5 7.4558,-9.3543 11.2886,-24.33 2,-31.25 -6.4524,-4.807 -10.4472,-9.9116 -12,-16 -1.453,-5.69724 -4.0456,-11.87392 5,-20 7.4581,-6.69991 26.7302,-7.6877 37,-2.75 5.893,2.83333 2.0667,10.87697 18.25,9.25 10.4605,-1.05163 22.0519,-0.171 30.5,-0.5 17.6678,-0.68806 25.5817,-12.7819 28,-24 l0.75,-36.75 c0.1197,-5.86376 1.0236,-10.281 -3.5,-10.5 -11.889,-0.57558 -2.3762,-18.57268 0.5,-21 5.0229,-4.2389 6.9774,-6.46253 9.75,-8.25 4.2037,-2.71013 8.6878,-7.79913 8.5,-16 l-0.75,-32.75 c-0.1382,-6.03536 -0.5563,-9.29298 -4.25,-10.75 -6.4631,-2.5495 -3.591,-7.39186 0.5,-10 4.7208,-3.00967 3.9319,-6.2088 4,-9.75 l0.75,-39 c0.1059,-5.50539 0.9615,-10.41914 4.5,-14.75 2.8814,-3.52658 3.1612,-10.85075 1.25,-16.5 -1.1322,-3.34665 -3.1459,-6.70855 -3.75,-10.75 -0.614,-4.10816 -3.9839,-9.17226 -11.25,-16 -6.2289,-5.85319 -11.7982,-11.97128 -12.25,-16.5 -0.3676,-3.6856 -5.0752,-5.8651 -7.25,-9.5 -6.3459,-10.60626 -3.586,-24.73944 2,-32 l9.75,-7.5 c5.156,-3.96612 6.7024,-4.42087 6.75,-7.75 z"/>

    <!-- 本州 -->
    <path id="Honshu" d="m1424.5,745.5 c-1.4143,-15.6203 17.4491,-20.2427 24.5,-11 8.8076,11.5454 20.8776,10.8048 27.5,6 9.0049,-6.5335 15.212,-8.1621 15.25,5 0.0322,11.1519 0.6997,15.2369 1,19 0.4204,5.2674 -0.0713,11.0397 1.75,16 1.4716,4.008 5.4928,4.515 6.5,17.25 0.4855,6.1382 -0.2163,17.8658 -0.75,24 -0.8389,9.6419 0.3901,15.4877 2.5,19.5 2.3092,4.3911 5.2154,10.8678 7.75,12.75 6.8044,5.0529 12.4514,12.8954 16.5,18.5 4.2996,5.9521 9.1643,11.6111 13.5,15.5 9.5454,8.5619 17.2735,19.9681 23,29 7.9005,12.4608 13.6821,27.5285 28,40.75 8.4237,7.7787 15.9666,26.7698 21,43.75 3.9617,13.3647 9.4794,27.3324 1.5,50 -1.7027,4.837 -2.3749,12.0953 -2.5,14.5 -0.5962,11.4575 -4.2976,23.1699 -5.5,30.5 -0.7578,4.6196 -10.3719,19.2497 -14.5,22.5 -15.1612,11.9374 -26.2585,46.5516 -16,74 2.2781,6.0956 5.7479,15.324 10,20.25 6.0653,7.0265 5.0471,17.2334 -4.5,15 -2.6932,-0.63 -5.3906,-0.9611 -7.5,-2.75 -4.1491,-3.5187 -15.5287,-4.7193 -22.75,-0.75 -7.4534,4.0968 -18.1628,13.559 -25.75,20.5 -4.9877,4.5629 -8.8006,13.7963 -8.5,19.75 0.5539,10.9692 1.5588,22.7234 3,33 1.1421,8.1439 5.4297,18.1037 10.5,24.5 8.0048,10.0982 14.3898,26.63 18,39 1.8662,6.3943 2.0039,15.5718 3.75,22 1.5471,5.6956 4.1125,13.5261 4.25,20 0.168,7.9068 -0.1909,17.997 -0.5,24.5 -0.4579,9.635 -3.118,20.7676 -7.5,26 -10.6001,12.6573 -9.1729,18.996 -11,24.5 -3.1116,9.3735 -7.742,18.7109 -11.5,26.5 -3.7425,7.7571 -6.2813,18.752 -6,27 0.3324,9.7444 0.2893,23.2501 0.25,33 -0.0666,16.5251 6.9063,35.9033 17.75,48.5 4.9899,5.7966 13.0447,14.1391 18.5,19.5 6.8536,6.735 15.0207,15.0262 -1.75,23 -5.8768,2.7942 -12.2235,7.545 -18.25,10 -16.5372,6.7366 -15.0704,21.1069 -14.75,32.75 0.2221,8.0727 -2.0945,21.0039 -1.25,31 1.6986,20.1066 -4.6552,24.7563 -13,28.25 -6.7,2.8051 -13.6064,10.2107 -18.75,13.25 -10.5265,6.2201 -11.0854,13.6402 -11.75,16.75 -1.6659,7.7954 -8.6218,13.9251 -16.5,15 -6.0026,0.819 -11.6276,-2.6026 -10.5,-12 0.5186,-4.3216 0.2412,-8.7608 -1.5,-12.75 -1.5836,-3.6281 -3.2912,-9.6095 -3.5,-13.25 -0.524,-9.1349 -0.2615,-21.6 -0.25,-30.75 0.028,-22.3461 5.5935,-18.3001 10.75,-23.5 3.0472,-3.0728 10.0326,-10.2036 12.75,-13.25 17.0715,-19.1387 -7.1762,-25.569 -23.75,-18 -3.9663,1.8114 -9.5396,3.9258 -13.5,5.75 -11.0437,5.0867 -11.3549,14.8543 -10.5,25.75 0.5935,7.5638 4.5182,15.3482 7.5,19 21.8843,26.8018 -10.5206,43.5201 -14,25 -1.263,-6.7225 -4.0148,-12.5265 -15,-12 -7.9069,0.3789 -18.8114,-0.5602 -25.75,3.25 -5.8638,3.22 -12.4271,8.5432 -15,17.25 -0.9343,3.1617 -2.1956,9.1817 -1.5553,14.4465 0.3459,2.8451 1.2471,5.4696 3.0553,7.3035 3.8491,3.9038 7.5556,8.3947 7.25,14.25 -0.3128,5.9918 -0.5364,14.024 0,20 0.8552,9.528 -3.8401,15.1189 -8.5,17.75 -3.8835,2.1928 -6.6717,7.9622 -10.5,10.25 -11.1066,6.6374 -6.9046,10.3592 -8.5,14.5 -6.5148,16.9088 -21.8849,-4.4907 -21,-19.5 0.5808,-9.851 0.2165,-25.179 0.5,-31 0.9355,-19.2113 -11.2243,-18.0791 -19.75,-14.25 -8.4523,3.7962 -14.518,8.8209 -18.75,10.25 -5.8916,1.9895 -11.3525,9.7969 -11.5,16.5 -0.2503,11.3757 -3.3664,20.8623 -8.25,25.5 -9.9055,9.4068 -8.8912,16.7613 -9.25,19.75 -2.289,19.0652 -8.517,14.1296 -17,15.25 -21.6221,2.8558 -57.8917,-1.488 -79.25,2.5 -2.8442,0.5311 -32.2631,6.7331 -42.25,10.5 -16.0639,6.059 -40.9327,13.4437 -5,-9 5.4815,-3.4238 17.36,-17.1059 -6,-15 -3.3705,0.3038 -7.7889,1.4319 -11,2.5 -19.165,6.3746 -18.2689,15.3384 -29.5,-3 -2.95,-4.8169 -3.9051,-12.8661 -3.5,-18.5 1.2761,-17.7452 -1.0915,-14.9415 -14.25,-10.75 -3.4844,1.1099 -14.6073,7.8825 -16.75,11.75 -2.8956,5.2265 -8.0378,14.5631 -10.5,19.25 -3.2467,6.1804 -6.3489,13.075 1,17.5 4.0435,2.4347 13.3956,7.6419 17.25,11.5 3.3908,3.394 10.9839,6.5854 15.75,9 10.7714,5.457 51.2775,28.6518 13.5,45.25 -2.7701,1.2171 -9.4047,-1.2487 -14.75,1 -8.9901,3.782 -24.2035,5.7786 -33.25,11.5 -9.1445,5.7833 -19.2988,5.9938 -18,22.5 1.2464,15.8399 -4.1299,18.4701 -17.5,29.5 -17.8979,14.7652 -17.3519,9.3734 -17.25,34.5 0.0555,13.6894 2.7898,25.8235 -7.25,28.25 -7.6303,1.8441 -12.7634,8.7115 -14.25,10 -3.6883,3.1968 -6.7464,9.3435 -15,8.25 -1.7182,-0.2277 -5.0231,-3.0484 -8.25,-3 -3.4221,0.0514 -6.6932,-1.3555 -11,-5 -4.7722,-4.0384 -11.8017,-8.1857 -18,-9 -2.215,-0.291 -4.8487,-0.8971 -14.25,-7.5 -1.9438,-1.3652 -4.5295,-6.1969 -6.5,-8.25 -3.3047,-3.4433 -7.3524,-6.5042 -8.25,-10.75 -1.2711,-6.0127 -6.3218,-12.0667 -13.5,-13.5 -6.3728,-1.2725 -12.8738,-11.9956 -10.5,-21.5 1.8782,-7.5199 1.1806,-18.2667 0,-23.5 -4.5006,-19.9508 -2.4531,-24.063 6.5,-28.75 4.2367,-2.2179 11.1943,-7.3271 13.75,-11 2.2107,-3.177 4.6261,-7.3021 7.75,-10 5.2919,-4.5703 8.7909,-11.0286 8.25,-18 -0.6009,-7.7441 1.4298,-18.9058 -13,-16.75 -8.2338,1.2301 -20.965,7.8221 -37.75,2 -6.8012,-2.3591 -16.3143,-4.2516 -24.5,-3.5 -10.49435,0.9635 -19.85689,-3.0055 -30.25,-4.75 -15.30984,-2.5697 -34.50465,-2.6619 -39.5,3 -6.9454,7.8722 -19.97447,18.4129 -25.75,21 -15.76178,7.0605 -18.86978,14.0861 -19.5,16.75 -2.31574,9.7886 -21.65357,13.0399 -25.5,8 -3.1986,-4.1911 -11.94342,-8.7771 -15.5,-3 -2.37512,3.858 -6.75792,5.1837 -14.5,3.5 -6.5546,-1.4254 -15.73318,4.033 -15.5,9.5 0.35857,8.4068 -7.78672,10.1823 -14.5,5 -7.99326,-6.1704 -23.24619,3.6777 -26,7.75 -6.83508,10.1077 -17.51275,13.4253 -26.5,14.25 -8.90347,0.817 -24.27552,6.9038 -28,13.25 -5.25564,8.9551 -22.04869,14.5217 -30,-0.75 -10.94118,-21.0142 -43.6214,-10.7437 -36.5,8 3.21624,8.4652 -3.58984,25.6001 -5.75,27.5 -6.57274,5.7809 -5.65441,21.2087 -6.5,26 -0.83552,4.7343 1.42267,22.3961 -7.25,12 -2.33324,-2.7969 -4.6951,-3.0441 -7,-4 -3.63693,-1.5083 -7.58178,-5.3928 -10,-8.5 -1.84034,-2.3647 -5.63321,-6.5907 -10.5,-9 -3.12536,-1.5472 -8.80933,-4.9923 -11,-5.75 -20.43341,-7.0674 -41.71246,-3.8398 -46.5,1.75 -2.38145,2.7805 -6.06463,5.9443 -9.5,7.5 -6.38138,2.8898 -9.00051,7.5401 -11.5,9 -5.83601,3.4087 -14.42056,4.8322 -18.5,-4.5 -0.75282,-1.7222 -2.03323,-3.8882 -3,-5.5 -1.87156,-3.1202 -2.34371,-11.3195 -10.5,-6.5 -3.41244,2.0164 -7.08891,0.323 -9,-2.5 -0.76016,-1.1229 -5.31408,-4.7305 -7,-4.5 -4.71319,0.6445 -8.05781,-3.2611 -5.75,-9.25 2.55109,-6.6202 1.57137,-18.2792 2.25,-25.75 0.52096,-5.735 3.3412,-13.7568 15.5,-12.5 4.42016,0.4569 12.01253,0.7612 14.5,-1.25 6.5252,-5.2757 13.89901,-4.6191 19.5,-6.25 11.82605,-3.4435 15.25856,-12.8432 18.5,-19.5 4.47601,-9.1922 15.62765,-22.413 25.75,-21 8.87369,1.2387 14.96504,-2.1392 26.75,-17.5 5.69469,-7.4226 12.9737,-17.1116 20.5,-23.5 11.17177,-9.4827 15.93503,-17.2538 22.25,-25 12.41703,-15.2312 31.3853,-29.864 44.25,-42.5 4.80215,-4.7168 11.03697,-11.4816 12.25,-17.25 1.08732,-5.1706 11.00956,-15.1774 21.5,-21.25 7.50508,-4.3445 16.08176,-9.3988 18.5,-13.75 2.87922,-5.1807 9.53241,-6.1445 16.25,-6.25 12.84087,-0.2017 12.51482,5.8234 8.5,9.75 -4.46216,4.3641 2.56354,10.5431 9,9.75 5.6572,-0.6971 14.59592,0.472 20.25,-0.25 14.25035,-1.8198 16.29182,-13.98 38.5,-12 9.68009,0.863 24.13495,0.7642 31.5,0 6.18951,-0.6422 13.88625,-3.167 19.75,-5.25 7.04782,-2.5036 12.03446,-9.1607 24,-10.5 6.94892,-0.7778 15.48097,-6.6914 21.5,-10.25 7.73356,-4.5723 5.95491,-7.5375 21.25,-8 15.15034,-0.4656 21.85596,4.6093 31.75,5.25 16.64561,1.0779 16.44359,-2.6467 24.5,-8 3.2793,-2.1791 6.2261,-7.2856 8.5,-10.5 5.4173,-7.6579 9.4872,-11.8344 15,-11 8.5127,1.2885 9.8684,6.0896 9.5,12 -0.4558,7.3128 -2.1519,14.3547 -1.5,18 3.3268,18.6025 12.772,21.4592 16,10.5 2.8229,-9.5838 14.086,-15.0089 17.25,-7.75 1.4483,3.3228 3.8159,6.8929 6.1586,8.3962 4.7598,3.0542 9.8558,0.9174 13.0914,-0.6462 4.6134,-2.2294 9.4963,-2.7231 13,-5 3.5574,-2.3119 7.9544,-6.46 9.25,-10.5 3.5137,-10.9564 12.6448,-9.4081 16.5,-11.5 25.753,-13.9742 11.3227,-34.3424 6.75,-39.5 -9.7436,-10.9899 -15.4291,-20.5034 -6.25,-30.25 5.4272,-5.7628 11.8158,-12.6723 15.75,-21.25 3.453,-7.5286 11.1338,-15.7976 16,-22.5 9.324,-12.8424 22.3974,-29.3282 31.25,-42.5 2.7408,-4.0781 5.7411,-10.9342 8.5,-15 11.0713,-16.3158 5.2997,-61.3508 0.75,-70 -5.5763,-10.6008 -12.6757,-23.9507 -2,-34.5 2.951,-2.9161 6.6127,-7.1069 9,-10.5 3.2435,-4.6101 13.8769,-11.9862 19,-12.5 18.5262,-1.8579 22.0349,-8.8835 24.5,-13.5 4.3365,-8.1213 22.8013,-14.3281 29,-5.5 4.0509,5.7693 -0.1947,20.6694 -2.75,22.5 -2.1982,1.5748 -6.3747,8.6717 -7.75,11 -5.0443,8.54 -17.5623,15.8324 -24.5,19.5 -7.3155,3.8673 -13.9738,15.0633 -3.5,17.5 9.5373,2.2188 12.451,7.3103 6,14 -4.5131,4.6801 6.6077,30.838 22.5,33 14.4707,1.9686 22.2969,-8.2735 22.25,-16.75 -0.0277,-5.0009 3.8701,-9.1803 5.75,-9.75 3.2546,-0.9862 7.5466,-6.4368 10.25,-8.5 4.8283,-3.6851 15.0603,-2.0126 21,-4 12.1437,-4.0634 17.7103,-4.9491 23.75,-10.5 4.7546,-4.3698 12.2385,-6.5787 16,-10.75 2.8176,-3.1246 7.8957,-6.7249 12.5,-8.75 4.6136,-2.0291 9.9161,-6.4563 13.5,-10 3.9257,-3.8816 9.6861,-8.1159 14,-11 5.7321,-3.8323 11.3189,-11.9672 15.75,-17.25 4.1347,-4.9295 6.6796,-12.4264 8.75,-18.75 1.7222,-5.2603 4.4341,-16.6426 8.5,-22.5 5.7588,-8.2962 8.9193,-17.0898 9.5,-21.75 2.2213,-17.8269 28.0662,-41.8626 36,-45.75 18.7305,-9.1776 36.4175,-37.1532 37,-60 0.2378,-9.3272 -0.8815,-28.6665 1.75,-32 2.3538,-2.9817 4.3591,-7.2535 5.9274,-11.5258 1.2908,-3.5164 1.9115,-6.0623 1.8226,-8.7242 -0.3167,-9.4834 4.498,-18.5426 11,-27.25 7.2006,-9.6429 15.6369,-33.6566 15,-40.75 -1.0584,-11.7877 -1.6256,-22.2377 3.5,-29.25 3.4168,-4.6745 5.0687,-12.726 5.5,-18.5 0.8086,-10.8243 -0.0158,-37.3476 0,-50.5 0.0065,-5.4208 0.1921,-13.5633 -4,-17 -4.3077,-3.5315 -6.7577,-10.8272 -6.5,-16.5 0.2247,-4.9472 -0.446,-11.6389 0.5,-16.5 1.9805,-10.1767 -6.388,-20.3388 -6.75,-0.5 -0.0831,4.8049 -1.2316,7.2159 -2.5,10 -9.6043,21.082 -31.9596,11.0647 -31.25,-0.5 0.6332,-10.3198 9.9308,-19.0187 15.5,-23 5.7476,-4.1088 14.4834,-17.579 15,-29.75 0.2799,-6.5941 1.2114,-16.2231 1,-21.75 -0.2269,-5.9314 -1.1606,-12.9069 -7.25,-17.5 -4.2287,-3.1896 -8.5397,-8.4762 -10.25,-11.5 -2.0691,-3.6581 -4.8916,-8.6714 -8,-11.5 -11.3915,-10.3662 -1.7154,-16.14 5,-19.5 3.3131,-1.6577 8.398,-2.4745 11.5,-4.5 16.2882,-10.6357 20.36,-21.2551 23.25,-32 1.1538,-4.2897 -0.3714,-37.3892 -0.25,-41 0.2322,-6.909 3.7595,-22.2971 10,-20.25 4.1005,1.3451 9.9324,-1.0611 13,-2.75 13.4352,-7.397 18.58,4.7645 22,14.75 1.247,3.6409 -0.7587,17.0319 0,24.75 0.7005,7.1264 6.3247,12.6653 10.5,17.25 4.089,4.49 13.847,9.0674 19,-6.25 3.018,-8.9711 13.0674,-17.0376 25,-5.25 5.9493,5.877 8.5154,7.2114 16,-4.5 3.343,-5.2308 0.5627,-28.4912 0.75,-39.25 0.2806,-16.1244 -9.8877,-15.4593 -18.75,-5 -3.8119,4.4989 -17.2864,20.5861 -39.5,11.5 -8.8028,-3.6007 -0.2368,-18.8501 3.5,-25.5 2.1159,-3.7654 5.5965,-9.9116 5,-16.5 z"/>

    <!-- 淡路島 -->
    <path id="Awaji-island" d="m780,1973.5 c-0.51711,-7.897 2.05907,-10.9298 4.25,-15.25 2.34558,-4.6251 5.81062,-6.192 7.25,-7.75 1.85459,-2.0074 5.00936,-5.3614 6.25,-8.25 1.2585,-2.9302 6.795,-4.4668 8,-7.75 1.1582,-3.1558 5.5807,-4.4617 9.25,-3.25 5.5709,1.8396 7.8811,6.8546 6.25,12 -0.7309,2.3056 -1.2232,6.4595 -2,8.75 -1.1444,3.3743 -2.7688,6.1928 -5.25,8.75 -6.1048,6.2917 -5.3223,11.921 -5.25,13 1.3167,19.6403 -15.92,20.8371 -23,12.75 -2.68404,-3.0658 -5.09196,-2.9507 -5.75,-13 z"/>

    <!-- 四国 -->
    <path id="Shikoku" d="m692.5,1978.5 c3.0443,2.3146 10.56643,5.7994 12.5,2.5 2.36913,-4.0427 6.78196,-4.4454 12,-2 2.8109,1.3173 5.26424,4.7249 10.5,5 10.6812,0.5612 11.28198,6.012 11.5,6.75 1.19842,4.0565 12.75797,5.3019 16.75,4.5 11.81348,-2.373 12.73901,2.0703 12.25,6.25 -1.05876,9.0495 4.33292,20.8588 9.25,22.25 5.18171,1.466 7.23323,9.0478 8.25,18.25 0.90548,8.195 -3.96995,16.088 -9,19.5 -14.99487,10.1714 -33.22617,27.4401 -43.25,41.75 -2.34856,3.3528 -4.28791,11.2341 -8,17.5 -3.4726,5.8617 -4.92328,11.8413 -6.75,17.75 -2.19986,7.1157 -6.41239,13.8509 -15,4.5 -3.63728,-3.9606 -10.40072,-5.8879 -15.5,-14 -2.44358,-3.8873 -8.3223,-7.501 -12,-10.25 -6.18379,-4.6223 -13.37793,-7.8136 -25,-7.25 -6.75238,0.3274 -17.03746,-1.9807 -21.75,8.5 -1.7933,3.9883 -8.08126,10.357 -14,12.75 -11.27166,4.5573 -22.80711,9.0949 -23.25,25.5 -0.32143,11.906 -3.77004,17.1761 -8.25,24 -3.72331,5.6714 -8.39832,13.8064 -14.25,18.75 -7.95405,6.7197 -15.18888,15.4162 -8.5,22 4.36456,4.296 8.03969,17.4126 -5,15 -6.05931,-1.1211 -15.19642,0.2635 -20,5.5 -6.28906,6.8559 -14.6797,10.066 -20.5,0 -3.79007,-6.5548 -9.54237,-14.8796 -14,-21 -5.62969,-7.7297 -13.76687,-10.0835 -20.5,2.5 -3.82262,7.1441 -20.80868,28.7055 -5,-2.5 3.18315,-6.2834 8.64662,-13.2933 9.75,-20.25 1.49723,-9.4398 2.88672,-17.5218 6.5,-20.75 4.92549,-4.4005 5.23085,-9.6482 2.25,-12 -3.53483,-2.7888 -5.4971,-10.9371 -8.25,-14.5 -11.87527,-15.3694 -22.23573,-9.0819 -36.75,-9 -32.25895,0.1821 -16.50149,-3.3926 0,-6 20.46852,-3.2343 27.99762,-17.2078 39.5,-27.25 3.27686,-2.8609 7.46822,-7.6005 11.25,-9.75 7.88956,-4.4843 9.85776,-8.494 10.5,-14.75 0.55442,-5.4005 3.01682,-11.5035 6.25,-14.25 6.05667,-5.145 5.47296,-12.125 5.5,-13.75 0.17565,-10.555 6.41887,-19.1482 13,-25.25 14.78215,-13.7056 21.4226,-3.4068 29.5,7 5.817,7.4945 12.95659,17.7922 21,7.5 5.32591,-6.8149 16.73012,-7.5558 20.5,-7 15.46895,2.2805 28.75533,-10.991 29,-19.75 0.3412,-12.2146 -1.14802,-18.0807 14.5,-27 5.34932,-3.0491 11.97464,-8.5747 16.5,-12.75 7.92476,-7.3118 18.27839,-10.3708 26,-4.5 z"/>

    <!-- 九州 -->
    <path id="Kyushu" d="m281,2064 c0.69502,-0.695 9.72527,21.4719 15,31 7.81102,14.1096 24.67472,26.3146 35.75,27.75 12.88483,1.6699 20.17378,-2.3888 22.25,-4.75 17.3835,-19.7699 49.14359,6.8221 28,30 -7.77756,8.5259 -12.45203,23.5412 9.75,22.75 12.7361,-0.4539 15.51651,10.7313 19.25,16.25 4.99407,7.3821 10.11207,18.6692 15.5,25 7.36415,8.6529 6.96923,21.6233 -1,30 -7.10164,7.4648 -7.07742,11.2326 -7.5,16.75 -0.73511,9.5979 -9.52116,18.4271 -13.75,22.25 -14.52982,13.1352 -15.04284,37.583 -15.25,44.25 -0.51795,16.6686 -4.97675,19.22 -8.5,26.75 -7.75024,16.5641 -6.19389,25.7997 -7,35.5 -1.4909,17.9406 1.05559,42.2949 -0.25,60.25 -0.5401,7.4277 -2.11248,18.4959 -5.25,25.25 -6.50293,13.9988 -18.1315,11.6344 -22,3.5 -3.00609,-6.321 -13.33362,-14.4968 -19,0.75 -2.2041,5.9307 -2.0526,13.7198 -2.5,19.25 -0.87883,10.8632 -3.66277,14.7816 -10,18 -15.53044,7.8873 -20.50845,15.1022 -24.25,17 -19.62015,9.9516 -36.79141,2.5279 -12.25,-20.5 13.26157,-12.4437 8.69517,-25.6574 -1.5,-34 -11.87594,-9.718 -11.87441,-3.5463 -12.25,-21.75 -0.2266,-10.9824 2.11982,-12.6821 8.25,-12.25 10.81548,0.7623 9.25604,-12.3831 -5,-5 -5.5433,2.8709 -12.07123,8.1689 -17,12 -17.75872,13.8036 -3.0964,27.6126 3.25,35 5.31381,6.1854 18.00399,16.4533 5.75,33.5 -2.66923,3.7132 -12.27443,2.7493 -18,1.5 -7.43134,-1.6215 -19.98092,-5.2898 -24.5,-4.75 -17.52431,2.0931 -28.56559,-22.6976 -11,-35.75 12.62736,-9.383 10.76708,-37.1043 -1.5,-42 -14.0991,-5.6268 -18.58046,-39.8922 -14,-47 12.69887,-19.7057 25.02848,-35.55 35.5,-46.5 4.97837,-5.2059 11.11832,-13.057 11.5,-20.25 1.03993,-19.598 0.43362,-29.5865 -2.75,-30.25 -4.52526,-0.9431 -12.60033,-2.6552 -1,-8.5 3.08857,-1.5562 15.27561,-23.7918 1.75,-39 -8.04588,-9.0468 -16.91305,-23.1961 -21.5,-33 -6.29528,-13.4552 -27.2205,-21.1087 -30.5,-1 -0.94664,5.8044 -1.66944,28.4603 -1.5,31.5 0.8111,14.5512 9.52111,8.6368 14,7.5 22.5513,-5.7239 27.2314,12.1128 17.75,21.25 -4.34998,4.1878 -7.85015,9.6311 -11.75,13.25 -11.76451,10.9168 -21.86069,8.0147 -18,-7 3.3734,-13.1196 -2.16993,-24.4347 -19.5,-8 -5.93962,5.6327 -14.38095,13.4256 -19.75,17.5 -10.87641,8.2537 -22.50889,9.6131 -15.5,-3.25 5.44782,-9.9981 -6.22486,-22.079 -12.75,-26.75 -7.42499,-5.3152 -10.26412,-26.813 -4.5,-31 3.49251,-2.5369 17.23605,3.9007 19.5,17 1.45233,8.4032 5.39149,11.1548 10.5,13 11.50212,4.1546 15.27408,-4.5201 11.5,-12.5 -3.90093,-8.2481 -16.38345,-20.6227 -22,-20.5 -10.07489,0.2107 -19.69885,-6.6906 -24.5,-15.5 -1.98018,-3.6333 -7.29734,-6.3666 -10,-9.5 -14.68312,-17.023 6.21112,-31.6467 21,-25.5 12.9485,5.3818 15.80351,8.6625 14.25,-7.75 -1.87492,-19.8081 12.05599,-16.7966 18.75,-16.75 11.9095,0.0862 18.35221,2.1919 19.75,-11.25 1.12632,-10.8313 10.20768,-16.5897 19.75,-11.25 12.28601,6.875 21.92727,-6.7408 22,-15.25 0.0474,-5.5453 3.25489,-12.0995 12.25,-21.5 9.45144,-9.8774 19.04174,-15.9855 26.75,-14.5 7.8631,1.5153 10.30458,-0.0462 13.75,-2.75 2.42982,-1.9068 5.19528,-5.7931 8.25,-6.25 4.78552,-0.7158 7.59662,-2.2258 7.5,-2.25 z"/>

    <!-- 沖縄 -->
    <path id="Okinawa" d="m1860.5,2234 c8.2814,-30.9672 37.3961,-11.6335 18.5,10 -5.9596,6.8229 -9.6861,14.9625 -16.5,19 -6.5133,3.8594 -13.8229,10.6748 -12.5,14.25 1.7824,4.817 -0.312,7.4299 -2.5,9.25 -10.1563,8.4485 -5.3931,12.9384 -0.75,16 9.6839,6.3855 7.1917,11.3698 -4.25,15.5 -14.5231,5.2426 -12.141,12.8785 -8,16.5 20.6155,18.0294 -22.5026,44.8619 -23,3 -0.0772,-6.5345 11.6038,-6.6267 3,-21.5 -4.5008,-7.7805 -5.3597,-12.3099 5.75,-20 13.4134,-9.2847 13.0992,-22.9294 11.25,-25 -5.8123,-6.5082 -16.4473,-9.4201 3.5,-11.5 12.8397,-1.3388 19.4534,-2.8893 25.5,-25.5 z"/>

    <!-- 佐渡島 -->
    <path id="Sado-island" d="m1189,1294.5 c7.3658,-22.2861 30.8481,-7.7172 19.5,7 -2.2158,2.8737 -2.7087,7.6087 -4,11 -5.1106,13.4223 1.4697,17.0538 5.25,16 9.8787,-2.7539 10.8855,6.4696 5.5,15 -4.6735,7.4027 -14.4513,14.4786 -20,21.25 -3.9253,4.7903 -11.3636,12.8899 -12.5,-2.25 -0.216,-2.8772 0.6177,-7.6401 1,-10.5 1.0994,-8.2239 -2.0525,-11.3476 -4.25,-12 -5.228,-1.5521 -10.15,-9.3973 -3.25,-16.75 3.7728,-4.0204 7.3384,-2.7003 7.25,-12.5 -0.0475,-5.2669 3.8471,-11.249 5.5,-16.25 z"/>
  </g>

  <!-- 都市マーカー -->
  <!-- 元座標 * scale(0.191, 0.115) で変換 -->

  <!-- 東京: 元座標約(1400, 1680) -> (267, 193) 関東地方 -->
  <circle cx="267" cy="193" r="6" fill="#e53935" stroke="#b71c1c" stroke-width="1.5" opacity="0.9"/>
  <text x="274" y="191" font-size="9" font-weight="bold" fill="#333" font-family="sans-serif">東京</text>

  <!-- 名古屋: 元座標約(1100, 1820) -> (210, 209) 中部地方 -->
  <circle cx="210" cy="209" r="6" fill="#1e88e5" stroke="#0d47a1" stroke-width="1.5" opacity="0.9"/>
  <text x="217" y="207" font-size="9" font-weight="bold" fill="#333" font-family="sans-serif">名古屋</text>

  <!-- 京都: 元座標約(920, 1780) -> (176, 205) 近畿地方北部 -->
  <circle cx="176" cy="205" r="6" fill="#1e88e5" stroke="#0d47a1" stroke-width="1.5" opacity="0.9"/>
  <text x="149" y="203" font-size="9" font-weight="bold" fill="#333" font-family="sans-serif">京都</text>

  <!-- 大阪: 元座標約(900, 1900) -> (172, 218) 近畿地方南部 -->
  <circle cx="172" cy="218" r="6" fill="#1e88e5" stroke="#0d47a1" stroke-width="1.5" opacity="0.9"/>
  <text x="145" y="228" font-size="9" font-weight="bold" fill="#333" font-family="sans-serif">大阪</text>

  <!-- クレジット表示 -->
  <text x="200" y="292" font-size="6" fill="#666" font-family="sans-serif" text-anchor="middle">
    Map: Japan_prefectures.svg by Golbez (original) / Andreasl01 (vector) - Wikimedia Commons (CC0)
  </text>
</svg>
